<svg width="695" height="579" viewBox="0 0 695 579" fill="none" xmlns="http://www.w3.org/2000/svg">
<g clip-path="url(#clip0)">
<path d="M181.781 223.012C177.842 217.908 172.276 213.186 171.923 206.889C171.6 201.113 175.907 195.378 174.091 189.852C172.694 185.604 168.087 183.04 163.585 181.682C154.965 179.121 145.741 179.476 137.343 182.693L137.799 182.371C132.674 180.546 126.683 182.43 122.651 185.921C118.618 189.412 116.222 194.25 114.362 199.099C112.503 203.948 111.062 208.974 108.478 213.52C105.894 218.065 101.938 222.199 96.7183 223.77C98.4657 227.256 103.928 228.452 107.132 226.05C107.95 225.385 108.686 224.625 109.323 223.785C111.46 221.186 113.597 218.588 115.733 215.99C117.932 219.9 114.647 225.297 117.35 228.917C118.744 230.784 121.289 231.493 123.653 232.002C142.128 235.944 161.293 235.233 179.425 229.933C180.882 229.504 182.49 228.912 183.095 227.593C183.793 226.07 182.816 224.354 181.781 223.012Z" fill="#2F2E41"/>
<path d="M234.166 242.927C234.05 243.434 233.975 243.949 233.941 244.468L193.56 267.764L183.745 262.114L173.281 275.812L189.685 287.503C191.01 288.448 192.606 288.937 194.233 288.897C195.86 288.858 197.43 288.292 198.707 287.284L240.347 254.434C242.226 255.129 244.273 255.236 246.214 254.741C248.156 254.245 249.9 253.17 251.216 251.658C252.531 250.147 253.355 248.27 253.579 246.279C253.802 244.288 253.413 242.276 252.465 240.51C251.517 238.745 250.054 237.311 248.27 236.397C246.487 235.484 244.467 235.135 242.481 235.397C240.494 235.66 238.635 236.521 237.149 237.866C235.664 239.211 234.623 240.976 234.166 242.927H234.166Z" fill="#FFB7B7"/>
<path d="M192.21 268.868L179.159 285.782C178.788 286.264 178.317 286.659 177.779 286.942C177.241 287.225 176.649 287.389 176.042 287.422C175.435 287.455 174.828 287.357 174.262 287.135C173.696 286.912 173.185 286.57 172.763 286.133L157.989 270.79C155.537 268.877 153.944 266.069 153.559 262.982C153.174 259.896 154.029 256.782 155.937 254.325C157.844 251.868 160.648 250.268 163.733 249.875C166.819 249.483 169.934 250.33 172.396 252.23L190.927 262.592C191.457 262.889 191.918 263.297 192.276 263.787C192.635 264.278 192.884 264.84 193.005 265.436C193.127 266.032 193.119 266.646 192.982 267.239C192.845 267.831 192.582 268.386 192.21 268.868H192.21Z" fill="#6C63FF"/>
<path d="M174.249 563.586L185.773 563.586L191.255 519.134L174.246 519.135L174.249 563.586Z" fill="#FFB7B7"/>
<path d="M171.309 559.823L194.004 559.822H194.005C197.841 559.822 201.52 561.346 204.232 564.059C206.945 566.771 208.469 570.45 208.469 574.286V574.756L171.309 574.757L171.309 559.823Z" fill="#2F2E41"/>
<path d="M95.2864 563.586L106.811 563.586L112.294 519.134L95.2847 519.135L95.2864 563.586Z" fill="#FFB7B7"/>
<path d="M92.3472 559.823L115.043 559.822H115.044C118.88 559.822 122.559 561.346 125.271 564.059C127.983 566.771 129.507 570.45 129.508 574.286V574.756L92.3478 574.757L92.3472 559.823Z" fill="#2F2E41"/>
<path d="M167.328 216.727C168.528 205.793 160.637 195.956 149.703 194.756C138.769 193.556 128.932 201.446 127.731 212.381C126.531 223.315 134.422 233.152 145.356 234.352C156.29 235.552 166.127 227.661 167.328 216.727Z" fill="#FFB7B7"/>
<path d="M159.183 244.411L170.916 250.224C170.916 250.224 184.026 273.007 176.506 294.628C172.855 305.125 183.137 338.586 183.137 338.586C183.137 338.586 199.067 490.152 199.117 536.93C179.326 539.973 160.526 543.733 159.586 534.333C158.646 524.933 148.356 413.787 148.356 413.787C148.356 413.787 134.205 537.153 122.925 539.033C111.645 540.913 89.0845 538.093 89.0845 538.093C89.0845 538.093 106.995 357.386 119.215 346.106L121.095 336.706L121.045 252.327L135.124 245.608L159.183 244.411Z" fill="#2F2E41"/>
<path d="M117.209 372.508C118.507 371.805 119.636 370.827 120.515 369.641C121.394 368.455 122.003 367.09 122.298 365.644C122.593 364.197 122.567 362.704 122.222 361.268C121.877 359.833 121.222 358.49 120.302 357.335L133.948 266.377L116.12 265.521L105.483 356.103C103.645 357.777 102.485 360.066 102.223 362.538C101.96 365.01 102.614 367.492 104.059 369.514C105.505 371.536 107.641 372.958 110.065 373.509C112.488 374.061 115.03 373.705 117.209 372.508Z" fill="#FFB7B7"/>
<path d="M133.561 289.168L112.239 287.822C111.632 287.784 111.041 287.615 110.505 287.328C109.97 287.04 109.502 286.641 109.135 286.156C108.768 285.672 108.509 285.114 108.377 284.521C108.244 283.928 108.242 283.313 108.368 282.718L112.811 261.887C113.024 258.784 114.459 255.892 116.802 253.846C119.144 251.799 122.202 250.765 125.306 250.97C128.41 251.175 131.305 252.603 133.358 254.939C135.41 257.276 136.453 260.332 136.256 263.436L138.042 284.592C138.093 285.197 138.013 285.807 137.807 286.379C137.602 286.951 137.275 287.472 136.85 287.906C136.424 288.34 135.91 288.678 135.343 288.896C134.775 289.114 134.167 289.206 133.561 289.168H133.561Z" fill="#6C63FF"/>
<path d="M168.404 201.607C167.628 198.086 165.107 195.169 162.203 193.033C157.415 189.511 151.545 187.78 145.612 188.141C139.68 188.501 134.063 190.931 129.737 195.007C127.32 197.142 125.578 199.934 124.723 203.043C124.315 204.597 124.294 206.227 124.66 207.792C125.026 209.356 125.769 210.807 126.824 212.019L127.222 212.268C126.861 210.738 128.05 209.208 129.47 208.533C130.947 207.991 132.489 207.646 134.056 207.505C136.427 207.057 138.674 206.105 140.645 204.714C142.617 203.323 144.267 201.525 145.483 199.441C146.385 202.006 147.825 204.347 149.707 206.309C151.589 208.27 153.87 209.806 156.395 210.812C159.027 211.842 166.257 213.257 168.763 211.95C171.96 210.283 169.18 205.128 168.404 201.607Z" fill="#2F2E41"/>
<path d="M484.921 351.731C471.998 334.438 448.347 330.264 436.594 339.046C424.841 347.829 422.141 371.694 435.064 388.987C447.025 404.995 468.697 409.36 480.633 403.363C480.595 403.55 480.592 403.743 480.626 403.932L481.299 407.259C481.35 407.512 481.466 407.748 481.634 407.945C481.802 408.142 482.018 408.292 482.261 408.381C482.503 408.471 482.765 408.497 483.021 408.458C483.276 408.418 483.518 408.313 483.722 408.154L489.42 403.702C489.624 403.542 489.784 403.334 489.885 403.095C489.985 402.857 490.023 402.597 489.995 402.339C489.966 402.082 489.873 401.837 489.723 401.626C489.573 401.415 489.372 401.246 489.138 401.135L486.072 399.677C485.965 399.628 485.851 399.593 485.735 399.571C494.936 389.844 496.909 367.774 484.921 351.731Z" fill="#CCCCCC"/>
<path d="M456.655 345.203C462.976 346.207 468.671 349.6 472.563 354.681C476.455 359.762 478.248 366.143 477.572 372.508C477.433 373.966 479.711 373.957 479.849 372.508C480.5 365.648 478.534 358.795 474.345 353.324C470.156 347.852 464.053 344.167 457.26 343.007C455.827 342.763 455.211 344.957 456.655 345.203Z" fill="white"/>
<path d="M505.985 52.7976C517.283 34.4014 512.426 10.8806 499.923 3.20234C487.421 -4.47592 464.247 1.82946 452.949 20.2257C442.491 37.2537 446.438 59.0052 456.42 67.8827C456.232 67.9161 456.052 67.9851 455.889 68.0861L453.046 69.9403C452.829 70.0817 452.652 70.2761 452.532 70.5051C452.411 70.7341 452.351 70.99 452.358 71.2487C452.364 71.5074 452.436 71.7602 452.568 71.9831C452.699 72.2059 452.885 72.3915 453.109 72.5222L459.351 76.1736C459.574 76.3043 459.827 76.3757 460.086 76.3811C460.345 76.3864 460.6 76.3256 460.829 76.2043C461.058 76.083 461.251 75.9053 461.392 75.688C461.532 75.4708 461.615 75.2212 461.632 74.963L461.855 71.5758C461.86 71.4577 461.851 71.3393 461.829 71.2232C474.266 76.1808 495.504 69.8627 505.985 52.7976Z" fill="#CCCCCC"/>
<path d="M501.612 24.1174C503.014 30.3627 501.965 36.9077 498.68 42.4015C495.396 47.8953 490.128 51.9185 483.963 53.6407C482.557 54.0501 483.407 56.1635 484.804 55.7567C491.42 53.8285 497.062 49.4705 500.6 43.5565C504.137 37.6425 505.307 30.6099 503.877 23.869C503.574 22.447 501.307 22.6849 501.612 24.1174Z" fill="white"/>
<path d="M305.763 140.083C304.818 118.515 287.62 101.751 272.963 102.393C258.305 103.035 242.638 121.239 243.583 142.807C244.458 162.771 259.911 178.579 273.153 180.342C273.015 180.475 272.905 180.633 272.827 180.808L271.51 183.936C271.41 184.175 271.372 184.435 271.4 184.692C271.429 184.949 271.523 185.195 271.673 185.406C271.823 185.617 272.024 185.785 272.258 185.896C272.492 186.008 272.75 186.057 273.008 186.04L280.224 185.569C280.483 185.552 280.732 185.469 280.95 185.329C281.167 185.188 281.345 184.995 281.466 184.766C281.588 184.538 281.649 184.282 281.643 184.023C281.638 183.764 281.567 183.511 281.436 183.288L279.723 180.357C279.662 180.256 279.588 180.163 279.504 180.08C292.584 177.22 306.64 160.09 305.763 140.083Z" fill="#6C63FF"/>
<path d="M286.077 118.773C290.736 123.161 293.532 129.171 293.889 135.562C294.245 141.953 292.135 148.236 287.992 153.116C287.057 154.243 288.945 155.517 289.874 154.398C294.275 149.095 296.508 142.324 296.126 135.444C295.743 128.563 292.774 122.082 287.813 117.299C286.766 116.29 285.022 117.757 286.077 118.773Z" fill="white"/>
<path d="M372.972 283.162C367.322 282.806 361.836 281.116 356.966 278.231C352.095 275.346 347.977 271.347 344.95 266.563C344.102 265.207 342.994 263.717 343.581 262.047C343.786 261.407 344.202 260.856 344.76 260.482C345.319 260.109 345.988 259.937 346.658 259.993C348.389 260.203 349.507 261.897 349.72 263.52C349.962 265.361 348.663 266.807 347.059 267.491C343.141 269.162 339.187 266.579 335.995 264.517C328.722 259.82 320.722 255.571 311.909 255.036C303.755 254.541 295.011 257.738 290.476 264.809C289.682 266.046 291.653 267.189 292.442 265.958C296.94 258.946 306.033 256.427 313.939 257.511C318.651 258.254 323.201 259.799 327.391 262.078C329.564 263.205 331.672 264.456 333.737 265.77C335.702 267.141 337.785 268.335 339.961 269.338C343.59 270.829 348.395 270.712 350.93 267.28C353.295 264.078 351.467 258.746 347.511 257.846C346.644 257.675 345.747 257.722 344.902 257.983C344.057 258.243 343.289 258.71 342.669 259.34C342.048 259.97 341.594 260.745 341.346 261.594C341.099 262.443 341.065 263.34 341.25 264.205C341.645 266.091 343.065 267.936 344.164 269.477C347.466 274.123 351.769 277.969 356.754 280.731C361.74 283.493 367.282 285.102 372.972 285.439C374.436 285.511 374.433 283.234 372.972 283.162L372.972 283.162Z" fill="#CCCCCC"/>
<path d="M591.655 126.278C597.89 123.378 605.544 122.427 611.887 125.122C618.231 127.817 622.555 134.724 620.504 140.838C619.574 143.609 617.456 146.335 618.281 149.134C618.916 151.289 621.132 152.711 623.308 153.723C625.484 154.734 627.864 155.585 629.438 157.291C631.012 158.997 631.34 161.933 629.374 163.256C628.726 163.692 627.917 163.899 627.289 164.358C626.754 164.793 626.367 165.384 626.184 166.049C626.001 166.714 626.029 167.419 626.266 168.067C626.789 169.37 627.655 170.509 628.77 171.362C631.002 173.286 633.951 175.489 633.258 178.221C633.001 178.951 632.572 179.609 632.006 180.137C631.441 180.666 630.757 181.051 630.011 181.259C628.462 181.705 626.855 181.917 625.244 181.888L559.392 183.962C557.218 184.126 555.032 184.003 552.89 183.599C551.849 183.409 550.858 183.006 549.979 182.416C549.101 181.826 548.353 181.061 547.784 180.169C546.523 177.835 547.351 174.959 548.908 172.78C550.465 170.6 552.669 168.881 554.49 166.879C556.312 164.878 557.802 162.379 557.481 159.793C557.224 157.722 555.858 155.932 554.878 154.051C553.897 152.169 553.328 149.818 554.598 148.087C556.387 145.648 560.682 145.869 562.717 143.596C564.252 141.881 563.956 139.412 564.108 137.2C564.475 131.88 568.159 126.855 573.402 124.522C576.068 123.377 578.969 122.883 581.863 123.08C584.758 123.278 587.565 124.16 590.051 125.656L591.655 126.278Z" fill="#2F2E41"/>
<path d="M671.852 389.559V400.329L630.313 405.453L630.314 389.558L671.852 389.559Z" fill="#9E616A"/>
<path d="M682.291 386.813L682.29 421.538H681.851C678.266 421.538 674.828 420.114 672.294 417.579C669.759 415.044 668.335 411.607 668.335 408.022V408.021L668.336 386.812L682.291 386.813Z" fill="#2F2E41"/>
<path d="M620.502 407.879L617.858 418.318L576.332 413.088L580.235 397.681L620.502 407.879Z" fill="#9E616A"/>
<path d="M631.296 407.78L622.771 441.442L622.345 441.334C618.87 440.454 615.887 438.229 614.052 435.15C612.217 432.071 611.681 428.389 612.56 424.914L612.561 424.913L617.768 404.354L631.296 407.78Z" fill="#2F2E41"/>
<path d="M609.897 287.108L612.139 289.445C612.139 289.445 626.775 300.921 615.947 331.153L598.234 382.18L657.605 384.495L656.333 407.812C656.333 407.812 570.232 412.602 570.985 398.412C571.738 384.223 574.915 331.683 574.915 331.683L557.027 317.317L561.34 293.02L609.897 287.108Z" fill="#2F2E41"/>
<path d="M563.905 310.266L557.027 317.317L533.966 380.709C533.966 380.709 530.452 396.52 538.358 400.034C546.264 403.548 597.133 423.203 597.133 423.203L602.327 404.508L563.132 380.982L581.401 356.992L584.15 319.18L563.905 310.266Z" fill="#2F2E41"/>
<path d="M564.272 198.437L622.806 186.732L624.078 218.847L608.915 251.164L612.139 289.445L559.68 298.611L561.322 248.274C561.322 248.274 547.235 228.399 555.534 208.367L564.272 198.437Z" fill="#E4E4E4"/>
<path d="M694.793 122.254C695.086 123.602 695.08 124.998 694.776 126.344C694.471 127.689 693.875 128.952 693.03 130.042C692.185 131.132 691.111 132.024 689.884 132.654C688.657 133.285 687.306 133.638 685.928 133.69L629.797 198.779L616.747 182.941L676.025 123.941C676.091 121.62 677.007 119.403 678.598 117.711C680.189 116.019 682.346 114.97 684.659 114.762C686.973 114.554 689.282 115.202 691.15 116.582C693.017 117.963 694.314 119.981 694.793 122.254V122.254Z" fill="#9E616A"/>
<path d="M642.018 191.678C642.031 192.286 641.913 192.889 641.672 193.447C641.43 194.005 641.072 194.505 640.62 194.912L624.836 209.12C622.855 211.518 620.004 213.033 616.908 213.332C613.811 213.631 610.723 212.69 608.319 210.716C605.915 208.742 604.392 205.895 604.084 202.8C603.776 199.704 604.708 196.613 606.675 194.204L617.692 175.968C618.007 175.447 618.429 175.001 618.932 174.659C619.435 174.316 620.005 174.087 620.605 173.985C621.204 173.883 621.818 173.911 622.406 174.068C622.993 174.225 623.54 174.507 624.009 174.894L640.483 188.506C640.952 188.893 641.332 189.377 641.597 189.924C641.862 190.472 642.005 191.07 642.018 191.678V191.678Z" fill="#E4E4E4"/>
<path d="M472.489 275.218C472.402 273.841 472.617 272.462 473.12 271.177C473.623 269.892 474.401 268.734 475.4 267.783C476.4 266.831 477.595 266.111 478.903 265.672C480.211 265.233 481.599 265.086 482.97 265.241L548.232 209.312L558.758 226.928L491.298 276.366C490.884 278.651 489.646 280.706 487.819 282.139C485.992 283.573 483.702 284.287 481.384 284.146C479.065 284.004 476.879 283.017 475.24 281.372C473.601 279.726 472.622 277.537 472.489 275.218V275.218Z" fill="#9E616A"/>
<path d="M535.083 214.499C535.162 213.896 535.369 213.317 535.691 212.801C536.014 212.286 536.443 211.846 536.951 211.512L554.688 199.832C557.006 197.758 560.053 196.688 563.159 196.857C566.265 197.026 569.178 198.419 571.258 200.732C573.339 203.045 574.417 206.088 574.257 209.195C574.097 212.302 572.712 215.218 570.405 217.305L556.777 233.681C556.388 234.149 555.902 234.527 555.354 234.79C554.806 235.052 554.208 235.194 553.6 235.205C552.992 235.216 552.389 235.095 551.831 234.852C551.274 234.609 550.776 234.248 550.37 233.795L536.125 217.865C535.72 217.412 535.417 216.877 535.237 216.296C535.057 215.715 535.005 215.102 535.083 214.499Z" fill="#E4E4E4"/>
<path d="M589.219 183.452C601.134 183.452 610.794 173.792 610.794 161.877C610.794 149.961 601.134 140.302 589.219 140.302C577.303 140.302 567.644 149.961 567.644 161.877C567.644 173.792 577.303 183.452 589.219 183.452Z" fill="#9E616A"/>
<path d="M611.291 158.81C604.477 158.263 598.82 151.456 599.529 144.658C599.609 147.46 598.656 150.194 596.851 152.339C595.047 154.485 592.517 155.892 589.742 156.293C586.617 156.638 583.19 155.692 580.47 157.269C577.457 159.015 576.493 163.256 573.354 164.764C570.321 166.222 566.469 164.234 564.971 161.221C563.473 158.209 563.84 154.589 564.833 151.374C566.249 146.789 568.828 142.649 572.318 139.356C575.808 136.063 580.091 133.729 584.751 132.582C589.41 131.435 594.287 131.513 598.907 132.808C603.528 134.104 607.734 136.574 611.117 139.976C613.982 142.858 616.257 146.531 616.626 150.577C616.994 154.624 615.117 159.015 611.483 160.833L611.291 158.81Z" fill="#2F2E41"/>
<circle cx="138" cy="216" r="2" fill="#2F2E41"/>
<circle cx="583" cy="162" r="2" fill="#2F2E41"/>
<circle cx="157" cy="216" r="2" fill="#2F2E41"/>
<circle cx="602" cy="162" r="2" fill="#2F2E41"/>
<path d="M143 226C145 227.333 149.7 229.2 152.5 226" stroke="#2F2E41" stroke-linecap="round"/>
<path d="M588 172C590 173.333 594.7 175.2 597.5 172" stroke="#2F2E41" stroke-linecap="round"/>
<path d="M148.5 216V222C148.333 222.833 147.4 224.1 145 222.5" stroke="#2F2E41" stroke-linecap="round"/>
<path d="M592 162V168C592.167 168.833 593.1 170.1 595.5 168.5" stroke="#2F2E41" stroke-linecap="round"/>
</g>
<defs>
<clipPath id="clip0">
<rect width="736" height="578.369" fill="white" transform="translate(-41)"/>
</clipPath>
</defs>
</svg>
