<svg width="475" height="475" viewBox="0 0 475 475" fill="none" xmlns="http://www.w3.org/2000/svg">
<g clip-path="url(#clip0)">
<path d="M331.72 410.953H330.609V257.178C330.61 256.551 330.5 255.933 330.287 255.367C330.074 254.801 329.764 254.303 329.38 253.908L330.082 252.818C330.594 253.345 331.007 254.009 331.291 254.763C331.574 255.518 331.721 256.343 331.72 257.178V410.953Z" fill="#3F3D56"/>
<path d="M218.574 16.3262C218.862 17.1558 219.076 18.0229 219.213 18.912C218.902 17.5558 218.658 16.6353 218.574 16.3262Z" fill="#3F3D56"/>
<path d="M228.426 59.2842C228.426 59.2842 228.426 60.2538 227.599 63.7531L228.426 59.2842Z" fill="#3F3D56"/>
<path d="M329.828 205.657C307.986 220.061 279.413 232.498 270.855 236.103C277.381 233.953 296.374 231.058 325.802 254.287C362.777 283.469 402.312 264.012 402.312 264.012C402.312 264.012 393.527 285.324 374.856 286.708C356.185 288.099 307.498 249.193 291.026 260.309C274.549 271.425 266.863 257.527 260.271 285.324C253.684 313.114 241.605 389.071 255.517 431.687L269.423 474.296H190.352C190.352 474.296 218.908 377.955 203.164 318.672C194.35 285.471 181.977 261.426 177.362 249.207C175.046 243.087 174.68 239.939 177.679 240.094C179.384 240.185 182.177 241.344 186.326 243.635C186.326 243.635 167.288 220.012 161.068 220.012C154.843 220.012 125.554 216.309 116.04 203.802C116.04 203.802 102.495 191.758 78.3322 221.403C54.1689 251.048 60.0278 251.048 38.4302 248.729C17.1714 246.446 0.516476 233.397 0 232.99C0.616439 233.306 25.4462 245.863 40.6239 239.468C56.0015 232.983 69.18 208.432 82.725 200.099C96.27 191.758 104.323 180.642 122.627 192.685L110.565 156.702L107.26 146.844L107.255 146.83C107.255 146.83 103.223 79.2064 95.5369 74.5759C87.8509 69.9384 92.6102 57.9019 78.3322 55.5831C78.3322 55.5831 95.9035 52.8006 99.1967 68.0904C102.495 83.3732 125.193 165.823 125.193 165.823C125.193 165.823 139.099 201.019 154.476 192.685C169.854 184.345 148.617 137.569 148.617 137.569L122.26 122.279C122.26 122.279 142.031 121.352 154.11 135.714C166.189 150.069 166.922 196.388 166.922 196.388C166.922 196.388 197.305 201.947 204.63 222.794C204.63 222.794 209.389 204.265 200.237 193.149C197.949 190.367 195.544 185.532 193.229 179.848C184.45 158.03 181.278 133.287 184.154 109.076C185.515 97.2296 186.353 85.6427 184.859 82.9094C181.566 76.8876 167.655 39.8365 166.555 30.1047C165.461 20.38 167.655 0.00292969 167.655 0.00292969C167.655 0.00292969 168.021 25.0105 172.414 32.8873C176.807 40.7641 189.252 79.6702 189.252 79.6702C189.252 79.6702 189.252 128.765 199.504 152.852C209.756 176.939 229.521 203.802 228.427 221.403V231.592C228.427 231.592 250.391 205.193 248.925 196.388C247.459 187.591 245.631 166.743 231.72 154.243C217.808 141.736 208.656 121.816 218.541 93.0979C224.101 76.9439 226.533 68.266 227.599 63.762L221.835 94.9529C221.835 94.9529 218.175 126.91 228.427 138.026C228.454 138.054 228.477 138.082 228.504 138.11C238.74 149.24 252.218 169.526 252.218 169.526L252.179 168.634L249.291 102.83L249.924 104.586L254.489 117.248L258.81 129.229C258.81 129.229 279.308 95.8805 303.471 84.7644C327.629 73.6484 342.64 34.7423 342.64 34.7423L363.144 14.3582L346.3 39.8365C346.3 39.8365 341.174 69.9384 312.257 91.2499C283.334 112.555 264.669 144.048 263.569 163.504C262.47 182.961 261.37 200.099 261.37 200.099C261.37 200.099 315.55 197.78 327.629 167.671C339.713 137.569 349.599 136.178 349.599 136.178L342.64 162.113L334.954 184.345C334.954 184.345 366.437 185.272 382.909 208.896C399.386 232.519 440.382 239.468 440.382 239.468L417.324 247.338C417.324 247.338 395.354 238.077 374.489 220.939C353.625 203.802 355.819 188.519 329.828 205.657Z" fill="#000000"/>
<path opacity="0.1" d="M341.501 142.46C339.186 155.431 336.459 167.959 332.627 177.508C320.548 207.617 266.368 209.936 266.368 209.936C266.368 209.936 266.624 205.959 267.012 199.684C280.768 198.251 318.371 192.131 328.184 167.671C329.084 165.437 329.917 163.034 330.705 160.504L341.501 142.46Z" fill="black"/>
<path opacity="0.1" d="M257.217 179.361C257.217 179.361 243.672 158.977 233.425 147.861C231.176 145.429 229.599 141.986 228.505 138.108C228.416 137.799 228.333 137.482 228.25 137.166C228.488 137.461 228.727 137.749 228.983 138.023C237.951 147.755 249.453 164.591 252.18 168.631C252.563 169.207 252.774 169.524 252.774 169.524L249.925 104.584L254.49 117.246L257.217 179.361Z" fill="black"/>
<path opacity="0.1" d="M265.057 120.878C264.977 132.282 263.807 139.065 263.807 139.065C263.807 139.065 284.299 105.73 308.454 94.6063C309.881 93.4636 311.329 92.3386 312.812 91.2465C341.732 69.9401 346.857 39.8334 346.857 39.8334L363.697 14.3584L343.196 34.7384C343.196 34.7384 328.187 73.6456 304.026 84.7619C287.557 92.3393 272.791 110.244 265.057 120.878Z" fill="black"/>
<path opacity="0.1" d="M233.423 231.239V241.429C233.423 241.429 255.388 215.028 253.923 206.227C252.803 199.497 251.463 185.726 244.675 174.024C247.734 182.867 248.666 191.493 249.48 196.39C250.53 202.701 239.533 218.061 233.227 226.248C233.448 227.896 233.514 229.571 233.423 231.239Z" fill="black"/>
<path opacity="0.1" d="M203.959 161.308C204.133 161.777 204.312 162.239 204.502 162.686C210.116 175.877 218.579 189.898 224.912 202.778C219.794 190.023 210.888 175.437 203.959 161.308Z" fill="black"/>
<path opacity="0.1" d="M326.357 254.288C314.314 244.784 304.021 239.655 295.613 237.057C286.793 241.257 279.533 244.389 275.88 245.927C282.431 243.781 301.411 240.931 330.8 264.125C353.858 282.323 377.912 281.606 392.752 278.488C396.856 274.57 400.296 269.648 402.867 264.015C402.867 264.015 363.331 283.468 326.357 254.288Z" fill="black"/>
<path opacity="0.1" d="M221.806 141.588C218.854 132.436 218.368 121.547 221.759 108.786C221.717 104.161 221.928 99.5384 222.391 94.9507L228.155 63.752C227.092 68.2511 224.66 76.9307 219.096 93.098C212.051 113.565 214.68 129.559 221.806 141.588Z" fill="black"/>
<path opacity="0.1" d="M383.466 208.895C372.041 192.513 353.401 187.047 343.046 185.235L339.952 194.183C339.952 194.183 371.435 195.11 387.909 218.732C397.044 231.832 413.72 239.801 426.765 244.304L440.94 239.465C440.94 239.465 399.939 232.517 383.466 208.895Z" fill="black"/>
<path opacity="0.1" d="M159.474 202.52C174.849 194.183 153.617 147.401 153.617 147.401L153.036 147.064C158.329 161.195 166.006 186.731 155.031 192.683C144.761 198.251 135.146 184.397 129.892 174.581C130.083 175.275 130.188 175.655 130.188 175.655C130.188 175.655 144.099 210.857 159.474 202.52Z" fill="black"/>
<path opacity="0.1" d="M209.627 232.626C209.627 232.626 214.26 214.557 205.557 203.401C207.691 213.012 205.185 222.789 205.185 222.789C199.521 206.665 180.059 199.689 171.535 197.356C171.865 202.725 171.921 206.224 171.921 206.224C171.921 206.224 202.306 211.783 209.627 232.626Z" fill="black"/>
<path opacity="0.1" d="M228.155 63.7552C228.98 60.2627 228.98 59.2891 228.98 59.2891L228.155 63.7552Z" fill="black"/>
<path opacity="0.1" d="M45.4023 249.389C45.4761 249.359 45.5511 249.331 45.6244 249.3C60.9997 242.816 74.1786 218.267 87.7235 209.93C101.268 201.593 109.322 190.476 127.626 202.519C127.626 202.519 124.424 185.935 118.218 175.039C120.274 180.727 121.935 186.63 123.183 192.682C104.879 180.639 96.8256 191.756 83.2807 200.093C69.7358 208.43 56.5569 232.979 41.1816 239.463C25.8063 245.948 0.546875 232.979 0.546875 232.979C0.546875 232.979 17.3865 246.411 38.9851 248.727C41.4559 248.992 43.5641 249.226 45.4023 249.389Z" fill="black"/>
<path opacity="0.1" d="M112.253 156.666C112.253 156.666 111.653 156.681 110.564 156.702L107.26 146.843C107.621 146.836 107.81 146.829 107.81 146.829C107.81 146.829 105.266 104.178 100.368 84.2998C100.429 84.3349 100.479 84.3771 100.535 84.4122C108.221 89.0427 112.253 156.666 112.253 156.666Z" fill="black"/>
<path opacity="0.1" d="M198.024 474.298C204.732 448.281 220.863 376.339 208.163 328.506C202.678 307.849 197.594 294.676 193.297 286.272C196.511 294.228 200.025 304.75 203.72 318.669C219.461 377.956 190.907 474.298 190.907 474.298H198.024Z" fill="black"/>
<path opacity="0.1" d="M191.324 253.471C186.906 251.013 182.179 249.569 177.362 249.206C175.046 243.086 174.68 239.938 177.679 240.092C178.512 240.282 179.35 240.507 180.183 240.767C186.07 246.95 191.324 253.471 191.324 253.471Z" fill="black"/>
<path opacity="0.1" d="M92.2192 70.0732C92.6368 70.9629 93.1428 71.7813 93.7247 72.5083C93.2973 71.6272 92.7922 70.8103 92.2192 70.0732Z" fill="black"/>
<path opacity="0.1" d="M159.109 145.549C159.674 146.226 160.205 146.949 160.696 147.714C159.092 142.837 157.112 138.619 154.666 135.712C142.585 121.353 122.817 122.28 122.817 122.28L147.608 136.656C151.856 138.662 155.761 141.68 159.109 145.549Z" fill="black"/>
<path opacity="0.1" d="M185.416 82.9094C186.91 85.6397 186.071 97.2267 184.707 109.077C181.831 133.287 185.005 158.028 193.784 179.845C194.951 182.764 196.253 185.593 197.685 188.317C189.319 166.823 186.341 142.608 189.15 118.914C190.514 107.064 191.353 95.477 189.859 92.7466C186.564 86.7253 172.653 49.6708 171.555 39.944C171.226 36.1704 171.149 32.3684 171.326 28.5785C168.482 18.37 168.21 0 168.21 0C168.21 0 166.014 20.38 167.112 30.1067C168.21 39.8335 182.121 76.8881 185.416 82.9094Z" fill="black"/>
<path opacity="0.1" d="M219.761 18.874C219.614 17.9585 219.391 17.0652 219.096 16.209C219.096 16.209 219.378 17.2086 219.761 18.874Z" fill="black"/>
<path opacity="0.1" d="M90.4603 65.5263C93.6867 66.026 97.3978 67.2785 100.229 70.1832C100.044 69.3929 99.883 68.6845 99.7547 68.0892C96.4599 52.8043 78.8882 55.5834 78.8882 55.5834C86.8291 56.8714 88.8802 61.1688 90.4603 65.5263Z" fill="black"/>
<path d="M343.621 372.416C343.621 372.416 349.903 364.078 352.474 365.755C355.045 367.433 345.081 374.889 345.081 374.889L343.621 372.416Z" fill="#FFB9B9"/>
<path opacity="0.1" d="M343.621 372.416C343.621 372.416 349.903 364.078 352.474 365.755C355.045 367.433 345.081 374.889 345.081 374.889L343.621 372.416Z" fill="black"/>
<path d="M324.453 354.215C324.453 354.215 322.144 359.453 322.748 365.098C323.353 370.744 328.879 388.86 330.758 388.538C332.637 388.216 346.554 375.241 346.554 375.241L343.899 370.552L333.732 378.346C333.732 378.346 332.184 350.47 324.453 354.215Z" fill="#D0CDE1"/>
<path d="M362.151 366.965L346.301 377.98C346.209 378.057 346.105 378.108 345.996 378.128C345.887 378.149 345.776 378.14 345.67 378.1C345.564 378.061 345.467 377.992 345.384 377.9C345.301 377.808 345.236 377.693 345.192 377.565L341.309 367.297C341.235 367.004 341.247 366.688 341.343 366.405C341.438 366.123 341.61 365.893 341.828 365.758L354.987 357.176C355.149 357.053 355.342 357.009 355.527 357.054C355.713 357.099 355.879 357.229 355.994 357.42L362.567 365.255C362.632 365.401 362.672 365.562 362.686 365.728C362.7 365.894 362.688 366.063 362.649 366.223C362.61 366.382 362.545 366.531 362.46 366.658C362.374 366.786 362.269 366.89 362.151 366.965Z" fill="#2F2E41"/>
<path d="M361.094 365.449L346.235 376.194L342.281 367.178L355.028 358.407L361.094 365.449Z" fill="#40514E"/>
<path d="M348.627 362.341C348.705 362.223 348.703 362.061 348.624 361.977C348.545 361.894 348.418 361.921 348.341 362.039C348.263 362.156 348.265 362.319 348.344 362.402C348.423 362.486 348.55 362.458 348.627 362.341Z" fill="#F2F2F2"/>
<path d="M354.097 371.516C354.148 371.438 354.148 371.329 354.095 371.273C354.042 371.218 353.958 371.236 353.906 371.314C353.854 371.393 353.855 371.501 353.908 371.557C353.961 371.613 354.045 371.594 354.097 371.516Z" fill="#F2F2F2"/>
<path opacity="0.1" d="M324.453 354.215C324.453 354.215 322.144 359.453 322.748 365.098C323.353 370.744 328.879 388.86 330.758 388.538C332.637 388.216 346.554 375.241 346.554 375.241L343.899 370.552L333.732 378.346C333.732 378.346 332.184 350.47 324.453 354.215Z" fill="black"/>
<path d="M339.374 374.01C339.374 374.01 346.484 366.813 348.854 368.912C351.224 371.011 340.559 376.708 340.559 376.708L339.374 374.01Z" fill="#FFB9B9"/>
<path d="M329.894 345.224C333.69 345.224 336.767 341.33 336.767 336.528C336.767 331.725 333.69 327.832 329.894 327.832C326.098 327.832 323.021 331.725 323.021 336.528C323.021 341.33 326.098 345.224 329.894 345.224Z" fill="#FFB9B9"/>
<path d="M353.593 397.099C353.593 397.099 360.939 398.298 360.702 403.995C360.465 409.693 355.014 433.381 355.014 433.381L354.54 442.677C354.54 442.677 355.014 458.269 353.593 457.969C352.171 457.669 348.853 446.875 348.853 446.875C348.853 446.875 344.824 443.576 346.72 440.578C348.616 437.579 350.038 437.879 349.564 434.58C349.09 431.282 349.327 417.489 350.749 413.291C352.171 409.093 352.999 406.777 352.999 406.777L348.379 406.394L353.593 397.099Z" fill="#FFB9B9"/>
<path opacity="0.1" d="M353.593 397.099C353.593 397.099 360.939 398.298 360.702 403.995C360.465 409.693 355.014 433.381 355.014 433.381L354.54 442.677C354.54 442.677 355.014 458.269 353.593 457.969C352.171 457.669 348.853 446.875 348.853 446.875C348.853 446.875 344.824 443.576 346.72 440.578C348.616 437.579 350.038 437.879 349.564 434.58C349.09 431.282 349.327 417.489 350.749 413.291C352.171 409.093 352.999 406.777 352.999 406.777L348.379 406.394L353.593 397.099Z" fill="black"/>
<path d="M354.067 398.597C354.067 398.597 361.177 400.696 361.888 406.693C362.599 412.69 366.154 430.381 366.154 430.381L369.946 441.476C369.946 441.476 375.87 454.969 373.264 454.669C370.657 454.37 367.102 447.773 365.917 447.773C364.732 447.773 361.177 445.974 361.414 444.774C361.651 443.575 363.31 439.977 363.31 439.977L357.576 427.34C356.469 424.9 355.632 422.28 355.089 419.552C354.5 416.592 353.83 412.967 353.83 411.79C353.83 409.691 349.09 408.792 349.09 408.792L354.067 398.597Z" fill="#FFB9B9"/>
<path d="M330.842 379.407L334.16 391.401C334.16 391.401 339.374 393.201 343.165 394.7C346.957 396.199 354.067 394.1 354.778 397.698C355.489 401.297 353.356 407.594 351.223 409.093C349.09 410.592 347.905 412.091 341.033 409.693C334.16 407.294 317.807 406.694 317.807 406.694C316.222 407.897 314.437 408.616 312.593 408.793C309.513 409.093 308.802 409.393 307.854 408.493C306.906 407.594 308.328 407.594 308.802 405.195C309.276 402.796 309.513 403.695 311.645 400.997C313.778 398.298 315.437 390.202 316.622 387.503C317.807 384.805 318.518 379.407 318.518 379.407H330.842Z" fill="#2F2E41"/>
<path d="M330.368 343.724C329.507 344.52 328.802 345.556 328.309 346.752C327.816 347.948 327.547 349.272 327.524 350.621C327.524 355.119 320.414 345.823 320.414 345.823C320.414 345.823 324.206 339.826 324.206 338.027C324.206 336.228 330.368 343.724 330.368 343.724Z" fill="#FFB9B9"/>
<path d="M321.362 341.923C321.362 341.923 325.628 344.022 326.576 347.02C327.524 350.019 331.079 356.316 331.079 356.316C331.079 356.316 336.056 362.913 334.397 370.109C332.738 377.306 331.316 379.105 331.316 380.304C331.316 381.504 328.946 383.603 327.05 383.303C325.154 383.003 318.044 381.803 317.57 380.604C317.096 379.405 314.253 362.313 316.148 356.016C317.686 351.204 319.427 346.5 321.362 341.923Z" fill="#D0CDE1"/>
<path d="M331.887 336.923C333.425 337.385 334.935 336.145 336.195 334.916C336.911 334.218 337.698 333.222 337.479 332.099C337.284 331.102 336.356 330.537 336.221 329.524C336.128 328.821 336.453 328.136 336.479 327.422C336.456 326.879 336.315 326.354 336.071 325.904C335.828 325.455 335.492 325.1 335.099 324.876C334.35 324.365 333.5 324.153 332.73 323.696C331.555 322.998 330.578 321.74 329.322 321.337C327.607 320.787 325.861 321.959 324.098 322.111C323.03 322.202 321.95 321.918 320.894 322.139C319.887 322.397 318.978 323.076 318.314 324.067C317.649 325.057 317.267 326.303 317.23 327.601C317.217 328.556 317.367 329.62 316.917 330.377C316.74 330.638 316.537 330.87 316.314 331.068C314.746 332.672 314.034 335.353 313.953 337.936C313.913 339.207 314.124 340.717 315.015 341.257C315.493 341.464 315.997 341.552 316.501 341.518C316.754 341.505 317.006 341.57 317.235 341.708C317.463 341.846 317.662 342.053 317.813 342.31C318.219 343.217 317.61 344.555 318.141 345.346C318.54 345.94 319.318 345.743 319.784 345.236C320.25 344.73 320.541 344.002 320.982 343.461C321.841 342.408 323.115 342.218 324.293 342.058C324.642 342.054 324.981 341.913 325.264 341.655C325.478 341.371 325.617 341.01 325.662 340.621C325.817 339.728 325.819 338.803 325.668 337.909C325.594 337.632 325.584 337.333 325.641 337.05C325.719 336.848 325.839 336.678 325.989 336.557C326.718 335.863 327.997 334.854 328.945 335.045C329.998 335.257 330.826 336.604 331.887 336.923Z" fill="#2F2E41"/>
<path d="M322.31 352.718C322.31 352.718 319.466 357.515 319.466 363.212C319.466 368.91 323.021 387.801 324.917 387.801C326.813 387.801 341.98 377.306 341.98 377.306L339.847 372.208L328.946 378.205C328.946 378.205 330.367 350.319 322.31 352.718Z" fill="#D0CDE1"/>
<path d="M353.488 406.842H301.064C300.512 406.842 300.064 407.29 300.064 407.842V419.192C300.064 419.745 300.512 420.192 301.064 420.192H353.488C354.041 420.192 354.488 419.745 354.488 419.192V407.842C354.488 407.29 354.041 406.842 353.488 406.842Z" fill="#22D1EE"/>
<path d="M327.276 420.895C326.098 420.893 324.969 420.301 324.136 419.247C323.303 418.193 322.835 416.764 322.833 415.274V257.176C322.834 256.113 323.072 255.072 323.52 254.173C323.969 253.275 324.61 252.556 325.369 252.099C326.128 251.643 326.973 251.468 327.807 251.595C328.641 251.722 329.43 252.146 330.081 252.817L329.379 253.906C328.891 253.403 328.299 253.085 327.674 252.99C327.048 252.895 326.414 253.026 325.845 253.368C325.276 253.711 324.796 254.25 324.459 254.924C324.123 255.598 323.944 256.379 323.944 257.176V415.274C323.945 416.392 324.297 417.463 324.921 418.254C325.546 419.044 326.393 419.488 327.276 419.49V420.895Z" fill="#3F3D56"/>
<path d="M318.879 332.598C319.118 332.355 318.845 331.422 318.269 330.515C317.693 329.607 317.032 329.068 316.793 329.311C316.554 329.554 316.827 330.487 317.403 331.395C317.979 332.302 318.64 332.841 318.879 332.598Z" fill="#6C63FF"/>
<path d="M271.296 450.499C265.837 461.093 267.332 474.566 267.332 474.566C267.332 474.566 277.68 470.864 283.14 460.271C288.599 449.678 287.104 436.204 287.104 436.204C287.104 436.204 276.756 439.906 271.296 450.499Z" fill="#3F3D56"/>
<path d="M275.398 452.372C274.966 465.007 267.554 474.863 267.554 474.863C267.554 474.863 260.84 464.235 261.272 451.6C261.703 438.965 269.116 429.108 269.116 429.108C269.116 429.108 275.829 439.737 275.398 452.372Z" fill="#F26D5B"/>
<path d="M181.447 454.506C184.057 466.714 192.997 474.275 192.997 474.275C192.997 474.275 197.706 462.043 195.096 449.835C192.485 437.627 183.545 430.066 183.545 430.066C183.545 430.066 178.837 442.299 181.447 454.506Z" fill="#F26D5B"/>
<path d="M185.281 451.886C192.444 460.707 193.318 474.268 193.318 474.268C193.318 474.268 182.581 473.526 175.419 464.704C168.257 455.883 167.382 442.322 167.382 442.322C167.382 442.322 178.119 443.064 185.281 451.886Z" fill="#3F3D56"/>
<path d="M161.543 120.889C160.921 133.511 153.36 143.186 153.36 143.186C153.36 143.186 146.809 132.397 147.431 119.775C148.054 107.153 155.615 97.4775 155.615 97.4775C155.615 97.4775 162.166 108.267 161.543 120.889Z" fill="#FCB1B1"/>
<path d="M82.7313 41.0953C91.1866 47.84 94.2706 60.8742 94.2706 60.8742C94.2706 60.8742 83.6459 62.9732 75.1906 56.2285C66.7354 49.4838 63.6514 36.4495 63.6514 36.4495C63.6514 36.4495 74.2761 34.3506 82.7313 41.0953Z" fill="#6C63FF"/>
<path d="M63.849 194.976C72.3043 201.721 75.3883 214.755 75.3883 214.755C75.3883 214.755 64.7636 216.854 56.3083 210.109C47.853 203.365 44.769 190.33 44.769 190.33C44.769 190.33 55.3938 188.231 63.849 194.976Z" fill="#FCB1B1"/>
<path d="M235.741 63.592C233.191 75.8203 224.288 83.4513 224.288 83.4513C224.288 83.4513 219.52 71.2565 222.069 59.0283C224.619 46.8 233.522 39.1689 233.522 39.1689C233.522 39.1689 238.291 51.3638 235.741 63.592Z" fill="#6C63FF"/>
<path d="M316.176 73.1249C313.179 85.1897 304.005 92.2882 304.005 92.2882C304.005 92.2882 299.69 79.8258 302.687 67.7609C305.684 55.6961 314.858 48.5977 314.858 48.5977C314.858 48.5977 319.173 61.0601 316.176 73.1249Z" fill="#FCB1B1"/>
<path d="M403.112 207.4C397.683 218.018 387.346 221.768 387.346 221.768C387.346 221.768 385.811 208.302 391.24 197.683C396.669 187.064 407.006 183.314 407.006 183.314C407.006 183.314 408.541 196.781 403.112 207.4Z" fill="#6C63FF"/>
</g>
<defs>
<clipPath id="clip0">
<rect width="475" height="475" fill="white"/>
</clipPath>
</defs>
</svg>
